<svg width="16" height="16" viewBox="0 0 16 16" fill="none" xmlns="http://www.w3.org/2000/svg">
<path fill-rule="evenodd" clip-rule="evenodd" d="M8.00004 14.6667C11.6819 14.6667 14.6667 11.6819 14.6667 8C14.6667 4.3181 11.6819 1.33333 8.00004 1.33333C4.31814 1.33333 1.33337 4.3181 1.33337 8C1.33337 11.6819 4.31814 14.6667 8.00004 14.6667ZM7.99998 13.4546C4.98752 13.4546 2.54544 11.0125 2.54544 8.00002C2.54544 4.98756 4.98752 2.54548 7.99998 2.54548C11.0124 2.54548 13.4545 4.98756 13.4545 8.00002C13.4545 11.0125 11.0124 13.4546 7.99998 13.4546ZM11.1463 5.62034C11.3042 5.14655 10.8535 4.6958 10.3797 4.85373L6.52273 6.13938C6.34176 6.1997 6.19975 6.34171 6.13942 6.52269L4.85377 10.3796C4.69584 10.8534 5.14659 11.3042 5.62039 11.1462L9.47733 9.8606C9.65831 9.80027 9.80031 9.65826 9.86064 9.47729L11.1463 5.62034ZM6.38702 9.61305L6.97346 7.85372L8.16007 9.02203L6.38702 9.61305ZM9.01964 8.16731L7.81887 6.98506L9.61308 6.38699L9.01964 8.16731Z" fill="#50B5FF"/>
</svg>
